<svg width="32" height="32" viewBox="0 0 32 32" fill="none" xmlns="http://www.w3.org/2000/svg">
<path d="M28 8.02799C28.004 7.83332 27.9907 6.07466 26.2667 4.38132C24.5693 2.71466 22.8573 2.66666 22.6667 2.66666H9.32799C9.00932 2.66666 7.33732 2.75066 5.71732 4.40266C4.04799 6.10399 3.99999 7.81199 3.99999 7.99999V12H2.66666V16H3.99999V24C3.99999 24.9787 4.54132 25.8307 5.33332 26.2947V28C5.33332 28.3536 5.4738 28.6928 5.72385 28.9428C5.9739 29.1929 6.31303 29.3333 6.66666 29.3333H7.99999C8.35361 29.3333 8.69275 29.1929 8.9428 28.9428C9.19285 28.6928 9.33332 28.3536 9.33332 28V26.6667H22.6667V28C22.6667 28.3536 22.8071 28.6928 23.0572 28.9428C23.3072 29.1929 23.6464 29.3333 24 29.3333H25.3333C25.6869 29.3333 26.0261 29.1929 26.2761 28.9428C26.5262 28.6928 26.6667 28.3536 26.6667 28V26.2973C27.0712 26.0653 27.4074 25.7308 27.6415 25.3275C27.8756 24.9242 27.9992 24.4663 28 24V16H29.3333V12H28V8.02799ZM12 5.33332H20V7.99999H12V5.33332ZM8.66666 24C8.13605 23.9998 7.62724 23.7889 7.25217 23.4135C6.87709 23.0382 6.66648 22.5293 6.66666 21.9987C6.66683 21.468 6.87779 20.9592 7.25311 20.5842C7.62843 20.2091 8.13738 19.9985 8.66799 19.9987C9.1986 19.9988 9.70741 20.2098 10.0825 20.5851C10.4576 20.9604 10.6682 21.4694 10.668 22C10.6678 22.5306 10.4569 23.0394 10.0815 23.4145C9.70621 23.7896 9.19727 24.0002 8.66666 24ZM14.6667 17.3333H6.66666V10.6667H14.6667V17.3333ZM23.3333 24C22.8027 23.9998 22.2939 23.7889 21.9188 23.4135C21.5438 23.0382 21.3331 22.5293 21.3333 21.9987C21.3335 21.468 21.5445 20.9592 21.9198 20.5842C22.2951 20.2091 22.804 19.9985 23.3347 19.9987C23.8653 19.9988 24.3741 20.2098 24.7491 20.5851C25.1242 20.9604 25.3348 21.4694 25.3347 22C25.3345 22.5306 25.1235 23.0394 24.7482 23.4145C24.3729 23.7896 23.8639 24.0002 23.3333 24ZM25.3333 17.3333H17.3333V10.6667H25.3333V17.3333Z" fill="currentColor"/>
</svg>
