<svg width="32" height="32" viewBox="0 0 32 32" fill="none" xmlns="http://www.w3.org/2000/svg">
<path d="M6.66667 2.66667H9.33333V6.66667H6.66667V2.66667ZM12 2.66667H14.6667V6.66667H12V2.66667ZM17.3333 2.66667H20V6.66667H17.3333V2.66667ZM25.3333 12H22.6667V10.6667C22.6667 10.313 22.5262 9.97391 22.2761 9.72386C22.0261 9.47381 21.687 9.33334 21.3333 9.33334H5.33333C4.97971 9.33334 4.64057 9.47381 4.39052 9.72386C4.14048 9.97391 4 10.313 4 10.6667V24C4 25.0609 4.42143 26.0783 5.17157 26.8284C5.92172 27.5786 6.93913 28 8 28H18.6667C19.7275 28 20.7449 27.5786 21.4951 26.8284C22.2452 26.0783 22.6667 25.0609 22.6667 24H25.3333C26.804 24 28 22.804 28 21.3333V14.6667C28 13.196 26.804 12 25.3333 12ZM22.6667 21.3333V14.6667H25.3333L25.336 21.3333H22.6667Z" fill="currentColor"/>
</svg>
