<svg width="24" height="24" viewBox="0 0 24 24" fill="none" xmlns="http://www.w3.org/2000/svg">
<path d="M18.8552 2.76038C19.1762 2.76052 19.4626 3.04677 19.4626 3.3678V5.80627H20.6325C21.6634 5.80645 22.5095 6.65329 22.5095 7.6842V19.3629C22.5094 20.3938 21.6634 21.2397 20.6325 21.2399H3.36789C2.33691 21.2399 1.49102 20.3939 1.49094 19.3629V4.89124C1.49094 3.71956 2.45012 2.76038 3.6218 2.76038H18.8552ZM2.70578 19.3629C2.70586 19.7384 2.99242 20.024 3.36789 20.024H20.6325C21.0078 20.0239 21.2936 19.7383 21.2937 19.3629V16.4156H14.031C13.2813 16.4156 12.6618 15.7962 12.6618 15.0465V11.9996C12.662 11.2501 13.2814 10.6306 14.031 10.6305H21.2937V7.6842C21.2937 7.30879 21.0079 7.02226 20.6325 7.02209C15.7173 7.02209 9.34035 7.01702 3.6218 7.02209C3.29383 7.02209 2.9834 6.9434 2.70578 6.8092V19.3629ZM13.9646 11.858C13.9462 11.8654 13.9307 11.8753 13.9187 11.8873C13.8944 11.9116 13.8777 11.949 13.8777 11.9996V15.0465C13.8777 15.0972 13.8945 15.1345 13.9187 15.1588C13.9429 15.1831 13.9802 15.2008 14.031 15.2008H21.2937V11.8463H14.031L13.9646 11.858ZM16.57 12.4078C17.186 12.4079 17.6851 12.9071 17.6853 13.5231C17.6853 14.1392 17.1861 14.6393 16.57 14.6393C15.9539 14.6393 15.4548 14.1392 15.4548 13.5231C15.4549 12.9071 15.954 12.4078 16.57 12.4078ZM3.6218 3.97522C3.10562 3.97522 2.70578 4.37506 2.70578 4.89124C2.70585 5.40734 3.10567 5.80627 3.6218 5.80627H18.2468V3.97522H3.6218Z" fill="#B3B3B3" stroke="#B3B3B3" stroke-width="0.2"/>
</svg>
